<mxfile host="app.diagrams.net" modified="2021-10-09T01:42:18.327Z" agent="5.0 (Windows NT 10.0; Win64; x64) AppleWebKit/537.36 (KHTML, like Gecko) Chrome/94.0.4606.71 Safari/537.36" etag="I8HZIKPC5A75-tldTsmn" version="15.5.0" type="github">
  <diagram id="CZnonthsBBkledTmPmow" name="Page-1">
    <mxGraphModel dx="474" dy="255" grid="1" gridSize="10" guides="1" tooltips="1" connect="1" arrows="1" fold="1" page="1" pageScale="1" pageWidth="850" pageHeight="1100" background="#182E3E" math="0" shadow="0">
      <root>
        <mxCell id="0" />
        <mxCell id="1" parent="0" />
        <mxCell id="fykiHhkojJBTAY3MWR-g-2" style="edgeStyle=orthogonalEdgeStyle;curved=0;rounded=1;sketch=0;orthogonalLoop=1;jettySize=auto;html=1;exitX=0.25;exitY=1;exitDx=0;exitDy=0;fontColor=#FFFFFF;strokeColor=#FFFFFF;" edge="1" parent="1" source="fykiHhkojJBTAY3MWR-g-1">
          <mxGeometry relative="1" as="geometry">
            <mxPoint x="500" y="120" as="targetPoint" />
          </mxGeometry>
        </mxCell>
        <mxCell id="fykiHhkojJBTAY3MWR-g-1" value="HI_B15" style="rounded=0;whiteSpace=wrap;html=1;fillColor=#EEEEEE;strokeColor=#FFFFFF;fontColor=#1A1A1A;" vertex="1" parent="1">
          <mxGeometry x="480" width="80" height="40" as="geometry" />
        </mxCell>
        <mxCell id="fykiHhkojJBTAY3MWR-g-3" value="HI_C15" style="rounded=0;whiteSpace=wrap;html=1;sketch=0;fontColor=#1A1A1A;strokeColor=#FFFFFF;fillColor=#EEEEEE;" vertex="1" parent="1">
          <mxGeometry x="480" y="120" width="40" height="120" as="geometry" />
        </mxCell>
      </root>
    </mxGraphModel>
  </diagram>
</mxfile>
